# xmcd
#
# Track frame offsets: 
#        150
#        11993
#        25524
#        40122
#        51702
#        67621
#        83725
#        100449
#        115064
#        127456
#        152178
#        197471
#        216982
#
# Disc length: 3074 seconds
#
# Revision: 0
# Processed by: cddbd v1.5.2PL0 Copyright (c) Steve Scherf et al.
# Submitted via: ExactAudioCopy v1.0b1
#
DISCID=b40c000d
DTITLE=Hank Williams III  - Damn Right, Rebel Proud  
DYEAR=1900
DGENRE=
TTITLE0=The Grand Ole Opry (Ain't So Grand)
TTITLE1=Wild and Free
TTITLE2=Me and My Friends
TTITLE3=Six Pack of Beer
TTITLE4=I Wish I Knew
TTITLE5=If You Can't Help Your Own
TTITLE6=Candidate For Suicide
TTITLE7=H8 Line
TTITLE8=Long Hauls and Close Calls
TTITLE9=Stoned and Alone
TTITLE10=P.F.F.
TTITLE11=3 Shades of Black
TTITLE12=Workin' Man
EXTD=
EXTT0=
EXTT1=
EXTT2=
EXTT3=
EXTT4=
EXTT5=
EXTT6=
EXTT7=
EXTT8=
EXTT9=
EXTT10=
EXTT11=
EXTT12=
PLAYORDER=
